<?xml version="1.0" encoding="UTF-8" standalone="no"?>
<!-- Created with Inkscape (http://www.inkscape.org/) -->

<svg
   version="1.1"
   id="svg2"
   xml:space="preserve"
   width="912"
   height="1025.3333"
   viewBox="0 0 912 1025.3333"
   sodipodi:docname="Solution-Diagram-cnn.svg"
   inkscape:version="1.1.2 (0a00cf5339, 2022-02-04)"
   xmlns:inkscape="http://www.inkscape.org/namespaces/inkscape"
   xmlns:sodipodi="http://sodipodi.sourceforge.net/DTD/sodipodi-0.dtd"
   xmlns="http://www.w3.org/2000/svg"
   xmlns:svg="http://www.w3.org/2000/svg"><defs
     id="defs6"><clipPath
       clipPathUnits="userSpaceOnUse"
       id="clipPath18"><path
         d="M 0,0 H 347692 V 390860 H 0 Z"
         id="path16" /></clipPath><clipPath
       clipPathUnits="userSpaceOnUse"
       id="clipPath7773"><path
         d="M 0,0 H 347692 V 390860 H 0 Z"
         id="path7771" /></clipPath></defs><sodipodi:namedview
     id="namedview4"
     pagecolor="#ffffff"
     bordercolor="#666666"
     borderopacity="1.0"
     inkscape:pageshadow="2"
     inkscape:pageopacity="0.0"
     inkscape:pagecheckerboard="0"
     showgrid="false"
     inkscape:zoom="0.41965836"
     inkscape:cx="-51.23215"
     inkscape:cy="502.78993"
     inkscape:window-width="1366"
     inkscape:window-height="699"
     inkscape:window-x="0"
     inkscape:window-y="32"
     inkscape:window-maximized="1"
     inkscape:current-layer="g8231" /><g
     id="g8"
     inkscape:groupmode="layer"
     inkscape:label="Solution-Diagram"
     transform="matrix(1.3333333,0,0,-1.3333333,0,1025.3333)"><g
       id="g7775"
       transform="matrix(0.0019685,0,0,-0.0019685,-7.4989714,773.95261)"><g
         id="g7777"><g
           id="g7779"><path
             d="M 0,0 H 347692 V 390860 H 0 Z"
             style="fill:#000000;fill-opacity:0;fill-rule:evenodd;stroke:none"
             id="path7781" /></g></g></g><g
       id="g7783"
       transform="matrix(0.0019685,0,0,-0.0019685,-7.4989714,773.95261)"><g
         id="g7785"><path
           d="m 163512,8837 h 38736 v 17568 h -38736 z"
           style="fill:#073763;fill-opacity:1;fill-rule:evenodd;stroke:none"
           id="path7787" /></g><path
         d="m 163512,8837 h 38736 v 17568 h -38736 z"
         style="fill:none;stroke:#000000;stroke-width:381;stroke-linecap:butt;stroke-linejoin:round;stroke-miterlimit:8;stroke-dasharray:none;stroke-opacity:1"
         id="path7789" /></g><g
       id="g7791"
       transform="matrix(0.7499985,0,0,-0.7499985,-7.4989714,773.95261)"><g
         id="g7793"
         transform="translate(429.16534,23.194225)"><g
           id="g7795"><text
             transform="translate(30.616116,29.975117)"
             style="font-variant:normal;font-weight:bold;font-size:18.6667px;font-family:Arial;-inkscape-font-specification:Arial-BoldMT;writing-mode:lr-tb;fill:#ffffff;fill-opacity:1;fill-rule:nonzero;stroke:none"
             id="text7799"><tspan
               x="0 13.477333 23.855999 30.071999"
               y="0"
               sodipodi:role="line"
               id="tspan7797">Data</tspan></text></g></g></g><g
       id="g7801"
       transform="matrix(0.7499985,0,0,-0.7499985,-7.4989714,773.95261)" /><g
       id="g7803"
       transform="matrix(0.0019685,0,0,-0.0019685,-7.4989714,773.95261)"><g
         id="g7805"><path
           d="m 145940,38356 h 73872 v 11952 h -73872 z"
           style="fill:#134f5c;fill-opacity:1;fill-rule:evenodd;stroke:none"
           id="path7807" /></g><path
         d="m 145940,38356 h 73872 v 11952 h -73872 z"
         style="fill:none;stroke:#000000;stroke-width:381;stroke-linecap:butt;stroke-linejoin:round;stroke-miterlimit:8;stroke-dasharray:none;stroke-opacity:1"
         id="path7809" /></g><g
       id="g7811"
       transform="matrix(0.7499985,0,0,-0.7499985,-7.4989714,773.95261)"><g
         id="g7813"
         transform="translate(383.04462,100.67191)"><g
           id="g7815"><text
             transform="translate(19.186218,22.605038)"
             style="font-variant:normal;font-weight:bold;font-size:18.6667px;font-family:Arial;-inkscape-font-specification:Arial-BoldMT;writing-mode:lr-tb;fill:#ffffff;fill-opacity:1;fill-rule:nonzero;stroke:none"
             id="text7819"><tspan
               x="0 11.386666 21.765333 32.143997 38.359997 49.746666 57.007999 67.386665 72.557327 84.989334 95.367996 100.53867 110.91733 121.296 127.51199 132.68266 144.06932"
               y="0"
               sodipodi:role="line"
               id="tspan7817">Feature Selection</tspan></text></g></g></g><g
       id="g7821"
       transform="matrix(0.7499985,0,0,-0.7499985,-7.4989714,773.95261)" /><g
       id="g7823"
       transform="matrix(0.0019685,0,0,-0.0019685,-7.4989714,773.95261)"><g
         id="g7825"><path
           d="m 136935,103715 h 91884 v 17568 h -91884 z"
           style="fill:#274e13;fill-opacity:1;fill-rule:evenodd;stroke:none"
           id="path7827" /></g><path
         d="m 136935,103715 h 91884 v 17568 h -91884 z"
         style="fill:none;stroke:#000000;stroke-width:381;stroke-linecap:butt;stroke-linejoin:round;stroke-miterlimit:8;stroke-dasharray:none;stroke-opacity:1"
         id="path7829" /></g><g
       id="g7831"
       transform="matrix(0.7499985,0,0,-0.7499985,-7.4989714,773.95261)"><g
         id="g7833"
         transform="translate(359.40945,272.21783)"><g
           id="g7835"><text
             transform="translate(31.423477,29.975117)"
             style="font-variant:normal;font-weight:bold;font-size:18.6667px;font-family:Arial;-inkscape-font-specification:Arial-BoldMT;writing-mode:lr-tb;fill:#ffffff;fill-opacity:1;fill-rule:nonzero;stroke:none"
             id="text7839"><tspan
               x="0 12.431999 23.818666 35.205334 46.591999 56.970665 63.186665 73.565331 83.944 94.322662 100.53867 105.70933 116.088 123.34933 133.728 144.10666 150.32266 155.49333 166.87999"
               y="0"
               sodipodi:role="line"
               id="tspan7837">Subdataset creation</tspan></text></g></g></g><g
       id="g7841"
       transform="matrix(0.7499985,0,0,-0.7499985,-7.4989714,773.95261)" /><g
       id="g7843"
       transform="matrix(0.0019685,0,0,-0.0019685,-7.4989714,773.95261)"><g
         id="g7845"><path
           d="m 12188,171117 h 78804 v 31644 H 12188 Z"
           style="fill:#38761d;fill-opacity:1;fill-rule:evenodd;stroke:none"
           id="path7847" /></g><path
         d="m 12188,171117 h 78804 v 31644 H 12188 Z"
         style="fill:none;stroke:#000000;stroke-width:381;stroke-linecap:butt;stroke-linejoin:round;stroke-miterlimit:8;stroke-dasharray:none;stroke-opacity:1"
         id="path7849" /></g><g
       id="g7851"
       transform="matrix(0.7499985,0,0,-0.7499985,-7.4989714,773.95261)"><g
         id="g7853"
         transform="translate(31.989502,449.12598)"><g
           id="g7855"><text
             transform="translate(60.393166,37.447556)"
             style="font-variant:normal;font-weight:bold;font-size:18.6667px;font-family:Arial;-inkscape-font-specification:Arial-BoldMT;writing-mode:lr-tb;fill:#ffffff;fill-opacity:1;fill-rule:nonzero;stroke:none"
             id="text7859"><tspan
               x="0 13.477333 27.981333 40.41333 45.584 59.061333 65.277328 75.655998"
               y="0"
               sodipodi:role="line"
               id="tspan7857">COVID-19</tspan></text><text
             transform="translate(22.54776,59.447556)"
             style="font-variant:normal;font-weight:bold;font-size:18.6667px;font-family:Arial;-inkscape-font-specification:Arial-BoldMT;writing-mode:lr-tb;fill:#ffffff;fill-opacity:1;fill-rule:nonzero;stroke:none"
             id="text7863"><tspan
               x="0 13.477333 18.647999 29.026665 40.41333 51.799999 63.186665 73.565331 78.736 89.114662 94.285332 107.76266 118.14133 124.35733 134.73599 145.11465 155.49333"
               y="0"
               sodipodi:role="line"
               id="tspan7861">Diagnosis Dataset</tspan></text></g></g></g><g
       id="g7865"
       transform="matrix(0.7499985,0,0,-0.7499985,-7.4989714,773.95261)" /><g
       id="g7867"
       transform="matrix(0.0019685,0,0,-0.0019685,-7.4989714,773.95261)"><g
         id="g7869"><path
           d="m 141676,171117 h 82404 v 31644 h -82404 z"
           style="fill:#38761d;fill-opacity:1;fill-rule:evenodd;stroke:none"
           id="path7871" /></g><path
         d="m 141676,171117 h 82404 v 31644 h -82404 z"
         style="fill:none;stroke:#000000;stroke-width:381;stroke-linecap:butt;stroke-linejoin:round;stroke-miterlimit:8;stroke-dasharray:none;stroke-opacity:1"
         id="path7873" /></g><g
       id="g7875"
       transform="matrix(0.7499985,0,0,-0.7499985,-7.4989714,773.95261)"><g
         id="g7877"
         transform="translate(371.85303,449.12598)"><g
           id="g7879"><text
             transform="translate(41.806374,37.447556)"
             style="font-variant:normal;font-weight:bold;font-size:18.6667px;font-family:Arial;-inkscape-font-specification:Arial-BoldMT;writing-mode:lr-tb;fill:#ffffff;fill-opacity:1;fill-rule:nonzero;stroke:none"
             id="text7883"><tspan
               x="0 13.477333 24.863998 35.242664 46.629333 51.799999 58.015999 68.394661 73.565331 78.736 88.069328 98.447998 104.66399 109.83466 121.22133"
               y="0"
               sodipodi:role="line"
               id="tspan7881">Hospitalization</tspan></text><text
             transform="translate(74.44115,59.447556)"
             style="font-variant:normal;font-weight:bold;font-size:18.6667px;font-family:Arial;-inkscape-font-specification:Arial-BoldMT;writing-mode:lr-tb;fill:#ffffff;fill-opacity:1;fill-rule:nonzero;stroke:none"
             id="text7887"><tspan
               x="0 13.477333 23.855999 30.071999 40.450665 50.82933 61.207996"
               y="0"
               sodipodi:role="line"
               id="tspan7885">Dataset</tspan></text></g></g></g><g
       id="g7889"
       transform="matrix(0.7499985,0,0,-0.7499985,-7.4989714,773.95261)" /><g
       id="g7891"
       transform="matrix(0.0019685,0,0,-0.0019685,-7.4989714,773.95261)"><g
         id="g7893"><path
           d="m 250474,171117 h 82404 v 31644 h -82404 z"
           style="fill:#38761d;fill-opacity:1;fill-rule:evenodd;stroke:none"
           id="path7895" /></g><path
         d="m 250474,171117 h 82404 v 31644 h -82404 z"
         style="fill:none;stroke:#000000;stroke-width:381;stroke-linecap:butt;stroke-linejoin:round;stroke-miterlimit:8;stroke-dasharray:none;stroke-opacity:1"
         id="path7897" /></g><g
       id="g7899"
       transform="matrix(0.7499985,0,0,-0.7499985,-7.4989714,773.95261)"><g
         id="g7901"
         transform="translate(657.41205,449.12598)"><g
           id="g7903"><text
             transform="translate(65.11758,37.447556)"
             style="font-variant:normal;font-weight:bold;font-size:18.6667px;font-family:Arial;-inkscape-font-specification:Arial-BoldMT;writing-mode:lr-tb;fill:#ffffff;fill-opacity:1;fill-rule:nonzero;stroke:none"
             id="text7907"><tspan
               x="0 13.477333 27.981333 40.41333 45.584 59.061333 65.277328 75.655998"
               y="0"
               sodipodi:role="line"
               id="tspan7905">COVID-19</tspan></text><text
             transform="translate(28.28788,59.447556)"
             style="font-variant:normal;font-weight:bold;font-size:18.6667px;font-family:Arial;-inkscape-font-specification:Arial-BoldMT;writing-mode:lr-tb;fill:#ffffff;fill-opacity:1;fill-rule:nonzero;stroke:none"
             id="text7911"><tspan
               x="0 13.477333 23.855999 34.234665 44.613331 54.991997 65.370667 75.749329 87.135994 92.306664 105.784 116.16267 122.37866 132.75732 143.136 153.51466"
               y="0"
               sodipodi:role="line"
               id="tspan7909">Deceased Dataset</tspan></text></g></g></g><g
       id="g7913"
       transform="matrix(0.7499985,0,0,-0.7499985,-7.4989714,773.95261)" /><g
       id="g7915"
       transform="matrix(0.0019685,0,0,-0.0019685,-7.4989714,773.95261)"><g
         id="g7917"><g
           id="g7919"><path
             d="M 136935,112499 51591,171119"
             style="fill:#000000;fill-opacity:0;fill-rule:evenodd;stroke:none"
             id="path7921" /></g></g><path
         d="M 136935,112499 55359.633,168530.45"
         style="fill:none;stroke:#000000;stroke-width:762;stroke-linecap:butt;stroke-linejoin:round;stroke-miterlimit:8;stroke-dasharray:none;stroke-opacity:1"
         id="path7923" /><path
         d="m 54647.035,167492.98 -2137.805,2995.32 3563,-920.4 z"
         style="fill:#000000;fill-opacity:1;fill-rule:evenodd;stroke:#000000;stroke-width:762;stroke-linecap:butt;stroke-linejoin:miter;stroke-miterlimit:10;stroke-dasharray:none;stroke-opacity:1"
         id="path7925" /></g><g
       id="g7927"
       transform="matrix(0.0019685,0,0,-0.0019685,-7.4989714,773.95261)"><g
         id="g7929"><g
           id="g7931"><path
             d="m 182877,121283 v 49836"
             style="fill:#000000;fill-opacity:0;fill-rule:evenodd;stroke:none"
             id="path7933" /></g></g><path
         d="m 182877,121283 v 45264"
         style="fill:none;stroke:#000000;stroke-width:762;stroke-linecap:butt;stroke-linejoin:round;stroke-miterlimit:8;stroke-dasharray:none;stroke-opacity:1"
         id="path7935" /><path
         d="m 181618.38,166547 1258.62,3458.03 1258.62,-3458.03 z"
         style="fill:#000000;fill-opacity:1;fill-rule:evenodd;stroke:#000000;stroke-width:762;stroke-linecap:butt;stroke-linejoin:miter;stroke-miterlimit:10;stroke-dasharray:none;stroke-opacity:1"
         id="path7937" /></g><g
       id="g7939"
       transform="matrix(0.0019685,0,0,-0.0019685,-7.4989714,773.95261)"><g
         id="g7941"><g
           id="g7943"><path
             d="m 228819,112499 62856,58620"
             style="fill:#000000;fill-opacity:0;fill-rule:evenodd;stroke:none"
             id="path7945" /></g></g><path
         d="m 228819,112499 59512.4,55501.73"
         style="fill:none;stroke:#000000;stroke-width:762;stroke-linecap:butt;stroke-linejoin:round;stroke-miterlimit:8;stroke-dasharray:none;stroke-opacity:1"
         id="path7947" /><path
         d="m 287472.97,168921.19 3387.37,1438.04 -1670.5,-3278.95 z"
         style="fill:#000000;fill-opacity:1;fill-rule:evenodd;stroke:#000000;stroke-width:762;stroke-linecap:butt;stroke-linejoin:miter;stroke-miterlimit:10;stroke-dasharray:none;stroke-opacity:1"
         id="path7949" /></g><g
       id="g7951"
       transform="matrix(0.0019685,0,0,-0.0019685,-7.4989714,773.95261)"><g
         id="g7953"><g
           id="g7955"><path
             d="m 182876,50308 v 7356"
             style="fill:#000000;fill-opacity:0;fill-rule:evenodd;stroke:none"
             id="path7957" /></g></g><path
         d="m 182876,50308 v 2784"
         style="fill:none;stroke:#000000;stroke-width:762;stroke-linecap:butt;stroke-linejoin:round;stroke-miterlimit:8;stroke-dasharray:none;stroke-opacity:1"
         id="path7959" /><path
         d="M 181617.38,53092 182876,56550.03 184134.62,53092 Z"
         style="fill:#000000;fill-opacity:1;fill-rule:evenodd;stroke:#000000;stroke-width:762;stroke-linecap:butt;stroke-linejoin:miter;stroke-miterlimit:10;stroke-dasharray:none;stroke-opacity:1"
         id="path7961" /></g><g
       id="g7963"
       transform="matrix(0.0019685,0,0,-0.0019685,-7.4989714,773.95261)"><g
         id="g7965"><g
           id="g7967"><path
             d="M 182880,26405 V 38357"
             style="fill:#000000;fill-opacity:0;fill-rule:evenodd;stroke:none"
             id="path7969" /></g></g><path
         d="m 182880,26405 v 7380"
         style="fill:none;stroke:#000000;stroke-width:762;stroke-linecap:butt;stroke-linejoin:round;stroke-miterlimit:8;stroke-dasharray:none;stroke-opacity:1"
         id="path7971" /><path
         d="M 181621.38,33785 182880,37243.03 184138.62,33785 Z"
         style="fill:#000000;fill-opacity:1;fill-rule:evenodd;stroke:#000000;stroke-width:762;stroke-linecap:butt;stroke-linejoin:miter;stroke-miterlimit:10;stroke-dasharray:none;stroke-opacity:1"
         id="path7973" /></g><g
       id="g7975"
       transform="matrix(0.0019685,0,0,-0.0019685,-7.4989714,773.95261)"><g
         id="g7977"><g
           id="g7979"><path
             d="m 29006,121643 h 69372 v 29556 H 29006 Z"
             style="fill:#000000;fill-opacity:0;fill-rule:evenodd;stroke:none"
             id="path7981" /></g></g></g><g
       id="g7983"
       transform="matrix(0.7499985,0,0,-0.7499985,-7.4989714,773.95261)"><g
         id="g7985"
         transform="translate(76.13123,319.27298)"><g
           id="g7987"><text
             transform="translate(57.687805,24.36)"
             style="font-variant:normal;font-weight:normal;font-size:16px;font-family:ArialMT;-inkscape-font-specification:ArialMT;writing-mode:lr-tb;fill:#000000;fill-opacity:1;fill-rule:nonzero;stroke:none"
             id="text7991"><tspan
               x="0 10.656 19.552 28.448 32.880001 37.312 45.312 54.208 62.208 66.639999"
               y="0"
               sodipodi:role="line"
               id="tspan7989">Age, sex, </tspan></text><text
             transform="translate(54.59015,43.56)"
             style="font-variant:normal;font-weight:normal;font-size:16px;font-family:ArialMT;-inkscape-font-specification:ArialMT;writing-mode:lr-tb;fill:#000000;fill-opacity:1;fill-rule:nonzero;stroke:none"
             id="text7995"><tspan
               x="0 8 16 29.327999 38.223999 42.655998 51.551998 64.879997 72.879997"
               y="0"
               sodipodi:role="line"
               id="tspan7993">symptoms </tspan></text><text
             transform="translate(39.445618,62.760002)"
             style="font-variant:normal;font-weight:normal;font-size:16px;font-family:ArialMT;-inkscape-font-specification:ArialMT;writing-mode:lr-tb;fill:#000000;fill-opacity:1;fill-rule:nonzero;stroke:none"
             id="text7999"><tspan
               x="0 8.8959999 17.792 26.688 31.120001 40.015999 43.568001 52.464001 61.360001 70.255997 79.152 87.152 91.584 95.136002"
               y="0"
               sodipodi:role="line"
               id="tspan7997">and diagnostic</tspan></text></g></g></g><g
       id="g8001"
       transform="matrix(0.7499985,0,0,-0.7499985,-7.4989714,773.95261)" /><g
       id="g8003"
       transform="matrix(0.0019685,0,0,-0.0019685,-7.4989714,773.95261)"><g
         id="g8005"><g
           id="g8007"><path
             d="m 243720,121637 h 102696 v 36936 H 243720 Z"
             style="fill:#000000;fill-opacity:0;fill-rule:evenodd;stroke:none"
             id="path8009" /></g></g></g><g
       id="g8011"
       transform="matrix(0.7499985,0,0,-0.7499985,-7.4989714,773.95261)"><g
         id="g8013"
         transform="translate(639.68506,319.25723)"><g
           id="g8015"><text
             transform="translate(48.509933,24.36)"
             style="font-style:italic;font-variant:normal;font-size:16px;font-family:Arial;-inkscape-font-specification:Arial-ItalicMT;writing-mode:lr-tb;fill:#000000;fill-opacity:1;fill-rule:nonzero;stroke:none"
             id="text8019"><tspan
               x="0 11.552 23.983999 34.639999 39.071999 50.624001 55.952 64.848 73.744003 78.176003 81.727997 90.624001 95.056 103.952 111.952 116.384 125.28 134.17599 138.608 147.504 156.39999 159.952 167.952"
               y="0"
               sodipodi:role="line"
               id="tspan8017">COVID-19 infected only:</tspan></text><text
             transform="translate(101.42009,43.56)"
             style="font-variant:normal;font-weight:normal;font-size:16px;font-family:ArialMT;-inkscape-font-specification:ArialMT;writing-mode:lr-tb;fill:#000000;fill-opacity:1;fill-rule:nonzero;stroke:none"
             id="text8023"><tspan
               x="0 10.656 19.552 28.448 32.880001 37.312 45.312 54.208 62.208 66.639999"
               y="0"
               sodipodi:role="line"
               id="tspan8021">Age, sex, </tspan></text><text
             transform="translate(80.97868,62.760002)"
             style="font-variant:normal;font-weight:normal;font-size:16px;font-family:ArialMT;-inkscape-font-specification:ArialMT;writing-mode:lr-tb;fill:#000000;fill-opacity:1;fill-rule:nonzero;stroke:none"
             id="text8027"><tspan
               x="0 8 16.896 30.224001 43.551998 52.448002 57.776001 66.671997 70.223999 79.120003 82.671997 87.103996 90.655998 99.552002 107.552"
               y="0"
               sodipodi:role="line"
               id="tspan8025">commorbidities </tspan></text><text
             transform="translate(84.50603,81.96)"
             style="font-variant:normal;font-weight:normal;font-size:16px;font-family:ArialMT;-inkscape-font-specification:ArialMT;writing-mode:lr-tb;fill:#000000;fill-opacity:1;fill-rule:nonzero;stroke:none"
             id="text8031"><tspan
               x="0 8.8959999 17.792 26.688 31.120001 40.015999 48.911999 56.911999 65.807999 74.704002 82.704002 91.599998"
               y="0"
               sodipodi:role="line"
               id="tspan8029">and deceased</tspan></text></g></g></g><g
       id="g8033"
       transform="matrix(0.7499985,0,0,-0.7499985,-7.4989714,773.95261)" /><g
       id="g8035"
       transform="matrix(0.0019685,0,0,-0.0019685,-7.4989714,773.95261)"><g
         id="g8037"><g
           id="g8039"><path
             d="m 96504,129117 h 102696 v 36936 H 96504 Z"
             style="fill:#000000;fill-opacity:0;fill-rule:evenodd;stroke:none"
             id="path8041" /></g></g></g><g
       id="g8043"
       transform="matrix(0.7499985,0,0,-0.7499985,-7.4989714,773.95261)"><g
         id="g8045"
         transform="translate(253.29134,338.88977)"><g
           id="g8047"><text
             transform="translate(48.509933,24.36)"
             style="font-style:italic;font-variant:normal;font-size:16px;font-family:Arial;-inkscape-font-specification:Arial-ItalicMT;writing-mode:lr-tb;fill:#000000;fill-opacity:1;fill-rule:nonzero;stroke:none"
             id="text8051"><tspan
               x="0 11.552 23.983999 34.639999 39.071999 50.624001 55.952 64.848 73.744003 78.176003 81.727997 90.624001 95.056 103.952 111.952 116.384 125.28 134.17599 138.608 147.504 156.39999 159.952 167.952"
               y="0"
               sodipodi:role="line"
               id="tspan8049">COVID-19 infected only:</tspan></text><text
             transform="translate(60.52556,43.56)"
             style="font-variant:normal;font-weight:normal;font-size:16px;font-family:ArialMT;-inkscape-font-specification:ArialMT;writing-mode:lr-tb;fill:#000000;fill-opacity:1;fill-rule:nonzero;stroke:none"
             id="text8055"><tspan
               x="0 10.656 19.552 28.448 32.880001 37.312 45.312 54.208 62.208 66.639999 71.071999 79.071999 87.071999 100.4 109.296 113.728 122.624 135.952 143.952"
               y="0"
               sodipodi:role="line"
               id="tspan8053">Age, sex, symptoms,</tspan></text><text
             transform="translate(80.97868,62.760002)"
             style="font-variant:normal;font-weight:normal;font-size:16px;font-family:ArialMT;-inkscape-font-specification:ArialMT;writing-mode:lr-tb;fill:#000000;fill-opacity:1;fill-rule:nonzero;stroke:none"
             id="text8059"><tspan
               x="0 8 16.896 30.224001 43.551998 52.448002 57.776001 66.671997 70.223999 79.120003 82.671997 87.103996 90.655998 99.552002 107.552"
               y="0"
               sodipodi:role="line"
               id="tspan8057">commorbidities </tspan></text><text
             transform="translate(64.50212,81.96)"
             style="font-variant:normal;font-weight:normal;font-size:16px;font-family:ArialMT;-inkscape-font-specification:ArialMT;writing-mode:lr-tb;fill:#000000;fill-opacity:1;fill-rule:nonzero;stroke:none"
             id="text8063"><tspan
               x="0 8.8959999 17.792 26.688 31.120001 40.015999 48.911999 56.911999 65.807999 69.360001 73.792 82.688004 86.239998 89.792 97.792 106.688 111.12 114.672 123.568 132.464"
               y="0"
               sodipodi:role="line"
               id="tspan8061">and hospitalizations</tspan></text></g></g></g><g
       id="g8065"
       transform="matrix(0.7499985,0,0,-0.7499985,-7.4989714,773.95261)" /><g
       id="g8067"
       transform="matrix(0.0019685,0,0,-0.0019685,-7.4989714,773.95261)"><g
         id="g8069"><path
           d="M 106968,57662 H 258792 V 94598 H 106968 Z"
           style="fill:#45818e;fill-opacity:1;fill-rule:evenodd;stroke:none"
           id="path8071" /></g><path
         d="M 106968,57662 H 258792 V 94598 H 106968 Z"
         style="fill:none;stroke:#000000;stroke-width:381;stroke-linecap:butt;stroke-linejoin:round;stroke-miterlimit:8;stroke-dasharray:none;stroke-opacity:1"
         id="path8073" /></g><g
       id="g8075"
       transform="matrix(0.7499985,0,0,-0.7499985,-7.4989714,773.95261)"><g
         id="g8077"
         transform="translate(280.75592,151.34383)"><g
           id="g8079"><text
             transform="translate(134.43913,25.392439)"
             style="font-variant:normal;font-weight:bold;font-size:18.6667px;font-family:Arial;-inkscape-font-specification:Arial-BoldMT;writing-mode:lr-tb;fill:#ffffff;fill-opacity:1;fill-rule:nonzero;stroke:none"
             id="text8083"><tspan
               x="0 12.431999 19.693333 30.071999 41.458664 48.719997 60.106663 70.485329 80.863998 91.242661 101.62133 106.792 118.17867"
               y="0"
               sodipodi:role="line"
               id="tspan8081">Preprocessing</tspan></text><text
             transform="translate(134.4094,47.39244)"
             style="font-variant:normal;font-weight:bold;font-size:18.6667px;font-family:Arial;-inkscape-font-specification:Arial-BoldMT;writing-mode:lr-tb;fill:#ffffff;fill-opacity:1;fill-rule:nonzero;stroke:none"
             id="text8087"><tspan
               x="0 6.2159996"
               y="0"
               sodipodi:role="line"
               id="tspan8085">- </tspan></text><text
             transform="translate(145.80537,47.39244)"
             style="font-style:italic;font-variant:normal;font-size:16px;font-family:Arial;-inkscape-font-specification:Arial-ItalicMT;writing-mode:lr-tb;fill:#ffffff;fill-opacity:1;fill-rule:nonzero;stroke:none"
             id="text8091"><tspan
               x="0 11.552 20.448 32 40 44.431999 47.984001 61.312 70.208 79.103996 83.536003 92.431999 96.863998 100.416 109.312"
               y="0"
               sodipodi:role="line"
               id="tspan8089">NaNs imputation</tspan></text><text
             transform="translate(65.39644,66.83244)"
             style="font-style:italic;font-variant:normal;font-size:16px;font-family:Arial;-inkscape-font-specification:Arial-ItalicMT;writing-mode:lr-tb;fill:#ffffff;fill-opacity:1;fill-rule:nonzero;stroke:none"
             id="text8095"><tspan
               sodipodi:role="line"
               id="tspan8093"
               x="0"
               y="0" /></text><text
             transform="translate(49.392532,85.83244)"
             style="font-style:italic;font-variant:normal;font-size:16px;font-family:Arial;-inkscape-font-specification:Arial-ItalicMT;writing-mode:lr-tb;fill:#ffffff;fill-opacity:1;fill-rule:nonzero;stroke:none"
             id="text8099"><tspan
               x="0 5.3280001 9.7600002 21.312 30.208 34.639999 43.535999 52.431999 61.327999 66.655998 70.208 78.208 87.103996 90.655998 95.087997 99.519997 108.416 112.848 121.744 130.64 143.968 152.864 158.192 161.744 169.744 178.64 182.192 186.62399 195.52 204.416 208.84801 217.744 222.17599 230.17599 239.07201 247.968 255.968 264.86401 270.19199 278.19199 281.74399 290.64001"
               y="0"
               sodipodi:role="line"
               id="tspan8097">- Categorical to numerical data conversion</tspan></text></g></g></g><g
       id="g8101"
       transform="matrix(0.7499985,0,0,-0.7499985,-7.4989714,773.95261)" /><g
       id="g8103"
       transform="matrix(0.0019685,0,0,-0.0019685,-7.4989714,773.95261)"><g
         id="g8105"><g
           id="g8107"><path
             d="m 182880,94598 v 9120"
             style="fill:#000000;fill-opacity:0;fill-rule:evenodd;stroke:none"
             id="path8109" /></g></g><path
         d="m 182880,94598 v 4548"
         style="fill:none;stroke:#000000;stroke-width:762;stroke-linecap:butt;stroke-linejoin:round;stroke-miterlimit:8;stroke-dasharray:none;stroke-opacity:1"
         id="path8111" /><path
         d="M 181621.38,99146 182880,102604.03 184138.62,99146 Z"
         style="fill:#000000;fill-opacity:1;fill-rule:evenodd;stroke:#000000;stroke-width:762;stroke-linecap:butt;stroke-linejoin:miter;stroke-miterlimit:10;stroke-dasharray:none;stroke-opacity:1"
         id="path8113" /></g><g
       id="g8115"
       transform="matrix(0.0019685,0,0,-0.0019685,-7.4989714,773.95261)"><g
         id="g8117"><path
           d="m 18710,232688 v 0 c 0,-2235.66 1812.352,-4048 4048,-4048 h 57664 c 1073.59,0 2103.22,426.48 2862.37,1185.62 759.146,759.16 1185.63,1788.78 1185.63,2862.38 v 16192 c 0,2235.66 -1812.35,4048 -4048,4048 H 22758 c -2235.648,0 -4048,-1812.34 -4048,-4048 z"
           style="fill:#674ea7;fill-opacity:1;fill-rule:evenodd;stroke:none"
           id="path8119" /></g><path
         d="m 18710,232688 v 0 c 0,-2235.66 1812.352,-4048 4048,-4048 h 57664 c 1073.59,0 2103.22,426.48 2862.37,1185.62 759.146,759.16 1185.63,1788.78 1185.63,2862.38 v 16192 c 0,2235.66 -1812.35,4048 -4048,4048 H 22758 c -2235.648,0 -4048,-1812.34 -4048,-4048 z"
         style="fill:none;stroke:#000000;stroke-width:381;stroke-linecap:butt;stroke-linejoin:round;stroke-miterlimit:8;stroke-dasharray:none;stroke-opacity:1"
         id="path8121" /></g><g
       id="g8123"
       transform="matrix(0.7499985,0,0,-0.7499985,-20.998971,773.95261)"><g
         id="g8125"
         transform="translate(52.21947,603.21686)"><g
           id="g8127"><text
             transform="translate(16.50196,24.682154)"
             style="font-variant:normal;font-weight:bold;font-size:18.6667px;font-family:Arial;-inkscape-font-specification:Arial-BoldMT;writing-mode:lr-tb;fill:#ffffff;fill-opacity:1;fill-rule:nonzero;stroke:none"
             id="text8131"><tspan
               sodipodi:role="line"
               id="tspan8129"
               x="0"
               y="0">Train-Test-Val Split</tspan></text><text
             style="font-variant:normal;font-weight:bold;font-size:18.6667px;font-family:Arial;-inkscape-font-specification:Arial-BoldMT;writing-mode:lr-tb;fill:#ffffff;fill-opacity:1;fill-rule:nonzero;stroke:none"
             id="text8135"
             x="64.855141"
             y="46.148018"><tspan
               sodipodi:role="line"
               id="tspan8133"
               x="64.855141"
               y="46.148018">60/20/20</tspan></text></g></g></g><g
       id="g8137"
       transform="matrix(0.7499985,0,0,-0.7499985,-7.4989714,773.95261)" /><g
       id="g8139"
       transform="matrix(0.0019685,0,0,-0.0019685,-7.4989714,773.95261)"><g
         id="g8141"><path
           d="m 149996,232688 v 0 c 0,-2235.66 1812.34,-4048 4048,-4048 h 57664 c 1073.6,0 2103.22,426.48 2862.38,1185.62 759.14,759.16 1185.62,1788.78 1185.62,2862.38 v 16192 c 0,2235.66 -1812.34,4048 -4048,4048 h -57664 c -2235.66,0 -4048,-1812.34 -4048,-4048 z"
           style="fill:#674ea7;fill-opacity:1;fill-rule:evenodd;stroke:none"
           id="path8143" /></g><path
         d="m 149996,232688 v 0 c 0,-2235.66 1812.34,-4048 4048,-4048 h 57664 c 1073.6,0 2103.22,426.48 2862.38,1185.62 759.14,759.16 1185.62,1788.78 1185.62,2862.38 v 16192 c 0,2235.66 -1812.34,4048 -4048,4048 h -57664 c -2235.66,0 -4048,-1812.34 -4048,-4048 z"
         style="fill:none;stroke:#000000;stroke-width:381;stroke-linecap:butt;stroke-linejoin:round;stroke-miterlimit:8;stroke-dasharray:none;stroke-opacity:1"
         id="path8145" /></g><g
       id="g8147"
       transform="matrix(0.7499985,0,0,-0.7499985,-21.087502,773.95261)"><g
         id="g8149"
         transform="translate(396.80215,603.21686)"><g
           id="g8151"><text
             transform="translate(16.50196,24.682154)"
             style="font-variant:normal;font-weight:bold;font-size:18.6667px;font-family:Arial;-inkscape-font-specification:Arial-BoldMT;writing-mode:lr-tb;fill:#ffffff;fill-opacity:1;fill-rule:nonzero;stroke:none"
             id="text8155"><tspan
               x="0 10.36 17.621332 27.999998 33.170666 44.557331 50.773331 60.778664 71.157333 81.535995"
               y="0"
               sodipodi:role="line"
               id="tspan8153">Train-Test-Val Split</tspan></text><text
             transform="translate(59.84427,46.68215)"
             style="font-variant:normal;font-weight:bold;font-size:18.6667px;font-family:Arial;-inkscape-font-specification:Arial-BoldMT;writing-mode:lr-tb;fill:#ffffff;fill-opacity:1;fill-rule:nonzero;stroke:none"
             id="text8159"><tspan
               x="0"
               y="0"
               sodipodi:role="line"
               id="tspan8157">60/20/20</tspan></text></g></g></g><g
       id="g8161"
       transform="matrix(0.7499985,0,0,-0.7499985,-7.4989714,773.95261)" /><g
       id="g8163"
       transform="matrix(0.0019685,0,0,-0.0019685,-7.4989714,773.95261)"><g
         id="g8165"><path
           d="m 258796,232688 v 0 c 0,-2235.66 1812.34,-4048 4048,-4048 h 57664 c 1073.6,0 2103.22,426.48 2862.38,1185.62 759.12,759.16 1185.62,1788.78 1185.62,2862.38 v 16192 c 0,2235.66 -1812.34,4048 -4048,4048 h -57664 c -2235.66,0 -4048,-1812.34 -4048,-4048 z"
           style="fill:#674ea7;fill-opacity:1;fill-rule:evenodd;stroke:none"
           id="path8167" /></g><path
         d="m 258796,232688 v 0 c 0,-2235.66 1812.34,-4048 4048,-4048 h 57664 c 1073.6,0 2103.22,426.48 2862.38,1185.62 759.12,759.16 1185.62,1788.78 1185.62,2862.38 v 16192 c 0,2235.66 -1812.34,4048 -4048,4048 h -57664 c -2235.66,0 -4048,-1812.34 -4048,-4048 z"
         style="fill:none;stroke:#000000;stroke-width:381;stroke-linecap:butt;stroke-linejoin:round;stroke-miterlimit:8;stroke-dasharray:none;stroke-opacity:1"
         id="path8169" /></g><g
       id="g8171"
       transform="matrix(0.7499985,0,0,-0.7499985,-20.998971,773.95261)"><g
         id="g8173"
         transform="translate(682.36646,603.21686)"><g
           id="g8175"><text
             transform="translate(16.50196,24.682154)"
             style="font-variant:normal;font-weight:bold;font-size:18.6667px;font-family:Arial;-inkscape-font-specification:Arial-BoldMT;writing-mode:lr-tb;fill:#ffffff;fill-opacity:1;fill-rule:nonzero;stroke:none"
             id="text8179"><tspan
               x="0 10.36 17.621332 27.999998 33.170666 44.557331 50.773331 60.778664 71.157333 81.535995"
               y="0"
               sodipodi:role="line"
               id="tspan8177">Train-Test-Val Split</tspan></text><text
             transform="translate(59.84427,46.68215)"
             style="font-variant:normal;font-weight:bold;font-size:18.6667px;font-family:Arial;-inkscape-font-specification:Arial-BoldMT;writing-mode:lr-tb;fill:#ffffff;fill-opacity:1;fill-rule:nonzero;stroke:none"
             id="text8183"><tspan
               sodipodi:role="line"
               id="tspan8181"
               x="0"
               y="0">60/20/20</tspan></text></g></g></g><g
       id="g8185"
       transform="matrix(0.7499985,0,0,-0.7499985,-7.4989714,773.95261)" /><g
       id="g8187"
       transform="matrix(0.0019685,0,0,-0.0019685,-7.4989714,773.95261)"><g
         id="g8189"><g
           id="g8191"><path
             d="m 51590,202761 v 25884"
             style="fill:#000000;fill-opacity:0;fill-rule:evenodd;stroke:none"
             id="path8193" /></g></g><path
         d="m 51590,202761 v 21312"
         style="fill:none;stroke:#000000;stroke-width:762;stroke-linecap:butt;stroke-linejoin:round;stroke-miterlimit:8;stroke-dasharray:none;stroke-opacity:1"
         id="path8195" /><path
         d="M 50331.38,224073 51590,227531.03 52848.62,224073 Z"
         style="fill:#000000;fill-opacity:1;fill-rule:evenodd;stroke:#000000;stroke-width:762;stroke-linecap:butt;stroke-linejoin:miter;stroke-miterlimit:10;stroke-dasharray:none;stroke-opacity:1"
         id="path8197" /></g><g
       id="g8199"
       transform="matrix(0.0019685,0,0,-0.0019685,-7.4989714,773.95261)"><g
         id="g8201"><g
           id="g8203"><path
             d="m 182878,202761 v 25884"
             style="fill:#000000;fill-opacity:0;fill-rule:evenodd;stroke:none"
             id="path8205" /></g></g><path
         d="m 182878,202761 v 21312"
         style="fill:none;stroke:#000000;stroke-width:762;stroke-linecap:butt;stroke-linejoin:round;stroke-miterlimit:8;stroke-dasharray:none;stroke-opacity:1"
         id="path8207" /><path
         d="m 181619.38,224073 1258.62,3458.03 1258.62,-3458.03 z"
         style="fill:#000000;fill-opacity:1;fill-rule:evenodd;stroke:#000000;stroke-width:762;stroke-linecap:butt;stroke-linejoin:miter;stroke-miterlimit:10;stroke-dasharray:none;stroke-opacity:1"
         id="path8209" /></g><g
       id="g8211"
       transform="matrix(0.0019685,0,0,-0.0019685,-7.4989714,773.95261)"><g
         id="g8213"><g
           id="g8215"><path
             d="m 291676,202761 v 25884"
             style="fill:#000000;fill-opacity:0;fill-rule:evenodd;stroke:none"
             id="path8217" /></g></g><path
         d="m 291676,202761 v 21312"
         style="fill:none;stroke:#000000;stroke-width:762;stroke-linecap:butt;stroke-linejoin:round;stroke-miterlimit:8;stroke-dasharray:none;stroke-opacity:1"
         id="path8219" /><path
         d="m 290417.38,224073 1258.62,3458.03 1258.62,-3458.03 z"
         style="fill:#000000;fill-opacity:1;fill-rule:evenodd;stroke:#000000;stroke-width:762;stroke-linecap:butt;stroke-linejoin:miter;stroke-miterlimit:10;stroke-dasharray:none;stroke-opacity:1"
         id="path8221" /></g><g
       id="g8223"
       transform="matrix(0.0019685,0,0,-0.0019685,-7.4989714,773.95261)"><g
         id="g8225"><path
           d="m 149999.5,293298 h 65760 v 36936 h -65760 z"
           style="fill:#cc0000;fill-opacity:1;fill-rule:evenodd;stroke:none"
           id="path8227" /></g><path
         d="m 149999.5,293298 h 65760 v 36936 h -65760 z"
         style="fill:none;stroke:#000000;stroke-width:381;stroke-linecap:butt;stroke-linejoin:round;stroke-miterlimit:8;stroke-dasharray:none;stroke-opacity:1"
         id="path8229" /></g><g
       id="g8231"
       transform="matrix(0.7499985,0,0,-0.7499985,-26.998971,773.95261)"><g
         id="g8233"
         transform="translate(388.8837,769.81104)"><g
           id="g8235"><text
             style="font-variant:normal;font-weight:bold;font-size:21.3333px;font-family:Arial;-inkscape-font-specification:Arial-BoldMT;writing-mode:lr-tb;fill:#ffffff;fill-opacity:1;fill-rule:nonzero;stroke:none"
             id="text8239"
             x="15.920604"
             y="42.952438"><tspan
               sodipodi:role="line"
               id="tspan8237"
               x="15.920604"
               y="42.952438">     Convolutional</tspan></text><text
             transform="translate(38.28486,68.95244)"
             style="font-variant:normal;font-weight:bold;font-size:21.3333px;font-family:Arial;-inkscape-font-specification:Arial-BoldMT;writing-mode:lr-tb;fill:#ffffff;fill-opacity:1;fill-rule:nonzero;stroke:none"
             id="text8243"><tspan
               sodipodi:role="line"
               id="tspan8241"
               x="0"
               y="0">Neural Netwoks</tspan></text></g></g></g><g
       id="g8245"
       transform="matrix(0.7499985,0,0,-0.7499985,-7.4989714,773.95261)" /><g
       id="g8247"
       transform="matrix(0.0019685,0,0,-0.0019685,-7.4989714,773.95261)"><g
         id="g8249"><g
           id="g8251"><path
             d="m 51590,252928 131292,40368"
             style="fill:#000000;fill-opacity:0;fill-rule:evenodd;stroke:none"
             id="path8253" /></g></g><path
         d="m 51590,252928 126921.9,39024.34"
         style="fill:none;stroke:#000000;stroke-width:762;stroke-linecap:butt;stroke-linejoin:round;stroke-miterlimit:8;stroke-dasharray:none;stroke-opacity:1"
         id="path8255" /><path
         d="m 178142,293155.38 3675.22,-186.76 -2935.42,-2219.32 z"
         style="fill:#000000;fill-opacity:1;fill-rule:evenodd;stroke:#000000;stroke-width:762;stroke-linecap:butt;stroke-linejoin:miter;stroke-miterlimit:10;stroke-dasharray:none;stroke-opacity:1"
         id="path8257" /></g><g
       id="g8259"
       transform="matrix(0.0019685,0,0,-0.0019685,-7.4989714,773.95261)"><g
         id="g8261"><g
           id="g8263"><path
             d="m 182876,252928 v 40368"
             style="fill:#000000;fill-opacity:0;fill-rule:evenodd;stroke:none"
             id="path8265" /></g></g><path
         d="m 182876,252928 v 35796"
         style="fill:none;stroke:#000000;stroke-width:762;stroke-linecap:butt;stroke-linejoin:round;stroke-miterlimit:8;stroke-dasharray:none;stroke-opacity:1"
         id="path8267" /><path
         d="m 181617.38,288724 1258.62,3458.03 1258.62,-3458.03 z"
         style="fill:#000000;fill-opacity:1;fill-rule:evenodd;stroke:#000000;stroke-width:762;stroke-linecap:butt;stroke-linejoin:miter;stroke-miterlimit:10;stroke-dasharray:none;stroke-opacity:1"
         id="path8269" /></g><g
       id="g8271"
       transform="matrix(0.0019685,0,0,-0.0019685,-7.4989714,773.95261)"><g
         id="g8273"><g
           id="g8275"><path
             d="M 291676,252928 182884,293296"
             style="fill:#000000;fill-opacity:0;fill-rule:evenodd;stroke:none"
             id="path8277" /></g></g><path
         d="M 291676,252928 187170.42,291705.5"
         style="fill:none;stroke:#000000;stroke-width:762;stroke-linecap:butt;stroke-linejoin:round;stroke-miterlimit:8;stroke-dasharray:none;stroke-opacity:1"
         id="path8279" /><path
         d="m 186732.58,290525.5 -2804.19,2382.97 3679.89,-22.97 z"
         style="fill:#000000;fill-opacity:1;fill-rule:evenodd;stroke:#000000;stroke-width:762;stroke-linecap:butt;stroke-linejoin:miter;stroke-miterlimit:10;stroke-dasharray:none;stroke-opacity:1"
         id="path8281" /></g><g
       id="g8283"
       transform="matrix(0.0019685,0,0,-0.0019685,-7.4989714,773.95261)"><g
         id="g8285"><path
           d="m 160575.8,351646 h 44600.45 v 0 c 5842.78,0 10579.3,6616.2 10579.3,14777.62 0,8161.48 -4736.52,14777.66 -10579.3,14777.66 H 160575.8 v 0 c -5842.78,0 -10579.3,-6616.18 -10579.3,-14777.66 0,-8161.42 4736.52,-14777.62 10579.3,-14777.62 z"
           style="fill:#85200c;fill-opacity:1;fill-rule:evenodd;stroke:none"
           id="path8287" /></g><path
         d="m 160575.8,351646 h 44600.45 v 0 c 5842.78,0 10579.3,6616.2 10579.3,14777.62 0,8161.48 -4736.52,14777.66 -10579.3,14777.66 H 160575.8 v 0 c -5842.78,0 -10579.3,-6616.18 -10579.3,-14777.66 0,-8161.42 4736.52,-14777.62 10579.3,-14777.62 z"
         style="fill:none;stroke:#000000;stroke-width:381;stroke-linecap:butt;stroke-linejoin:round;stroke-miterlimit:8;stroke-dasharray:none;stroke-opacity:1"
         id="path8289" /></g><g
       id="g8291"
       transform="matrix(0.7499985,0,0,-0.7499985,-7.4989714,773.95261)"><g
         id="g8293"
         transform="translate(401.826,934.31476)"><g
           id="g8295"><text
             transform="translate(47.35858,21.907053)"
             style="font-variant:normal;font-weight:bold;font-size:21.3333px;font-family:Arial;-inkscape-font-specification:Arial-BoldMT;writing-mode:lr-tb;fill:#ffffff;fill-opacity:1;fill-rule:nonzero;stroke:none"
             id="text8299"><tspan
               x="0 17.770668 30.784 43.797337 55.658669 61.568001"
               y="0"
               sodipodi:role="line"
               id="tspan8297">Model </tspan></text><text
             transform="translate(24.239212,47.90705)"
             style="font-variant:normal;font-weight:bold;font-size:21.3333px;font-family:Arial;-inkscape-font-specification:Arial-BoldMT;writing-mode:lr-tb;fill:#ffffff;fill-opacity:1;fill-rule:nonzero;stroke:none"
             id="text8303"><tspan
               x="0 14.208 26.069334 37.930668 43.84 56.853336 68.714668 75.818672 81.728004 94.741333"
               y="0"
               sodipodi:role="line"
               id="tspan8301">Evaluation</tspan></text></g></g></g><g
       id="g8305"
       transform="matrix(0.7499985,0,0,-0.7499985,-7.4989714,773.95261)" /><g
       id="g8307"
       transform="matrix(0.0019685,0,0,-0.0019685,-7.4989714,773.95261)"><g
         id="g8309"><g
           id="g8311"><path
             d="m 182879.5,330234 v 21408"
             style="fill:#000000;fill-opacity:0;fill-rule:evenodd;stroke:none"
             id="path8313" /></g></g><path
         d="m 182879.5,330234 v 16836"
         style="fill:none;stroke:#000000;stroke-width:762;stroke-linecap:butt;stroke-linejoin:round;stroke-miterlimit:8;stroke-dasharray:none;stroke-opacity:1"
         id="path8315" /><path
         d="m 181620.88,347070 1258.62,3458.03 1258.62,-3458.03 z"
         style="fill:#000000;fill-opacity:1;fill-rule:evenodd;stroke:#000000;stroke-width:762;stroke-linecap:butt;stroke-linejoin:miter;stroke-miterlimit:10;stroke-dasharray:none;stroke-opacity:1"
         id="path8317" /></g></g></svg>
